<svg id="visual" viewBox="0 0 900 600" width="900" height="600" xmlns="http://www.w3.org/2000/svg" xmlns:xlink="http://www.w3.org/1999/xlink" version="1.1"><rect x="0" y="0" width="900" height="600" fill="#ffffff"></rect><path d="M0 291L21.5 301.3C43 311.7 86 332.3 128.8 335.8C171.7 339.3 214.3 325.7 257.2 332.5C300 339.3 343 366.7 385.8 377.8C428.7 389 471.3 384 514.2 377.8C557 371.7 600 364.3 642.8 345.8C685.7 327.3 728.3 297.7 771.2 286.2C814 274.7 857 281.3 878.5 284.7L900 288L900 601L878.5 601C857 601 814 601 771.2 601C728.3 601 685.7 601 642.8 601C600 601 557 601 514.2 601C471.3 601 428.7 601 385.8 601C343 601 300 601 257.2 601C214.3 601 171.7 601 128.8 601C86 601 43 601 21.5 601L0 601Z" fill="#ff0000"></path><path d="M0 426L21.5 419.3C43 412.7 86 399.3 128.8 391.2C171.7 383 214.3 380 257.2 391.3C300 402.7 343 428.3 385.8 438.5C428.7 448.7 471.3 443.3 514.2 433.8C557 424.3 600 410.7 642.8 400.3C685.7 390 728.3 383 771.2 382C814 381 857 386 878.5 388.5L900 391L900 601L878.5 601C857 601 814 601 771.2 601C728.3 601 685.7 601 642.8 601C600 601 557 601 514.2 601C471.3 601 428.7 601 385.8 601C343 601 300 601 257.2 601C214.3 601 171.7 601 128.8 601C86 601 43 601 21.5 601L0 601Z" fill="#ba0004"></path><path d="M0 535L21.5 521.7C43 508.3 86 481.7 128.8 468.8C171.7 456 214.3 457 257.2 468C300 479 343 500 385.8 512.8C428.7 525.7 471.3 530.3 514.2 531.3C557 532.3 600 529.7 642.8 522.8C685.7 516 728.3 505 771.2 505C814 505 857 516 878.5 521.5L900 527L900 601L878.5 601C857 601 814 601 771.2 601C728.3 601 685.7 601 642.8 601C600 601 557 601 514.2 601C471.3 601 428.7 601 385.8 601C343 601 300 601 257.2 601C214.3 601 171.7 601 128.8 601C86 601 43 601 21.5 601L0 601Z" fill="#7a0000"></path></svg>