<svg id="visual" viewBox="0 0 900 550" width="900" height="550" xmlns="http://www.w3.org/2000/svg" xmlns:xlink="http://www.w3.org/1999/xlink" version="1.1"><rect x="0" y="0" width="900" height="550" fill="#ffffff"></rect><path d="M0 163L30 172.5C60 182 120 201 180 216.5C240 232 300 244 360 242C420 240 480 224 540 229.7C600 235.3 660 262.7 720 264.5C780 266.3 840 242.7 870 230.8L900 219L900 551L870 551C840 551 780 551 720 551C660 551 600 551 540 551C480 551 420 551 360 551C300 551 240 551 180 551C120 551 60 551 30 551L0 551Z" fill="#ff1100"></path><path d="M0 359L30 367.3C60 375.7 120 392.3 180 378C240 363.7 300 318.3 360 306.8C420 295.3 480 317.7 540 314.8C600 312 660 284 720 267.7C780 251.3 840 246.7 870 244.3L900 242L900 551L870 551C840 551 780 551 720 551C660 551 600 551 540 551C480 551 420 551 360 551C300 551 240 551 180 551C120 551 60 551 30 551L0 551Z" fill="#ce0d0c"></path><path d="M0 341L30 355.2C60 369.3 120 397.7 180 404.2C240 410.7 300 395.3 360 383.8C420 372.3 480 364.7 540 369.5C600 374.3 660 391.7 720 387.5C780 383.3 840 357.7 870 344.8L900 332L900 551L870 551C840 551 780 551 720 551C660 551 600 551 540 551C480 551 420 551 360 551C300 551 240 551 180 551C120 551 60 551 30 551L0 551Z" fill="#9f0d0f"></path><path d="M0 452L30 445.2C60 438.3 120 424.7 180 426.7C240 428.7 300 446.3 360 457.3C420 468.3 480 472.7 540 476C600 479.3 660 481.7 720 477.8C780 474 840 464 870 459L900 454L900 551L870 551C840 551 780 551 720 551C660 551 600 551 540 551C480 551 420 551 360 551C300 551 240 551 180 551C120 551 60 551 30 551L0 551Z" fill="#710d0d"></path></svg>