<svg id="visual" viewBox="0 0 900 450" width="900" height="450" xmlns="http://www.w3.org/2000/svg" xmlns:xlink="http://www.w3.org/1999/xlink" version="1.1"><rect x="0" y="0" width="900" height="450" fill="#ffffff"></rect><path d="M0 91L30 108.2C60 125.3 120 159.7 180 162.7C240 165.7 300 137.3 360 120.7C420 104 480 99 540 106C600 113 660 132 720 134.7C780 137.3 840 123.7 870 116.8L900 110L900 451L870 451C840 451 780 451 720 451C660 451 600 451 540 451C480 451 420 451 360 451C300 451 240 451 180 451C120 451 60 451 30 451L0 451Z" fill="#ff0000"></path><path d="M0 222L30 224.8C60 227.7 120 233.3 180 241.7C240 250 300 261 360 263.7C420 266.3 480 260.7 540 265.7C600 270.7 660 286.3 720 277.8C780 269.3 840 236.7 870 220.3L900 204L900 451L870 451C840 451 780 451 720 451C660 451 600 451 540 451C480 451 420 451 360 451C300 451 240 451 180 451C120 451 60 451 30 451L0 451Z" fill="#ca0006"></path><path d="M0 294L30 302.3C60 310.7 120 327.3 180 331.7C240 336 300 328 360 311.3C420 294.7 480 269.3 540 267.8C600 266.3 660 288.7 720 296.8C780 305 840 299 870 296L900 293L900 451L870 451C840 451 780 451 720 451C660 451 600 451 540 451C480 451 420 451 360 451C300 451 240 451 180 451C120 451 60 451 30 451L0 451Z" fill="#970007"></path><path d="M0 407L30 403.7C60 400.3 120 393.7 180 384.3C240 375 300 363 360 363.2C420 363.3 480 375.7 540 382C600 388.3 660 388.7 720 376.2C780 363.7 840 338.3 870 325.7L900 313L900 451L870 451C840 451 780 451 720 451C660 451 600 451 540 451C480 451 420 451 360 451C300 451 240 451 180 451C120 451 60 451 30 451L0 451Z" fill="#660000"></path></svg>