<svg id="visual" viewBox="0 0 960 540" width="960" height="540" xmlns="http://www.w3.org/2000/svg" xmlns:xlink="http://www.w3.org/1999/xlink" version="1.1"><rect x="0" y="0" width="960" height="540" fill="#ffffff"></rect><path d="M0 111L22.8 125.3C45.7 139.7 91.3 168.3 137 170.7C182.7 173 228.3 149 274 143.7C319.7 138.3 365.3 151.7 411.2 146C457 140.3 503 115.7 548.8 110C594.7 104.3 640.3 117.7 686 128C731.7 138.3 777.3 145.7 823 155.2C868.7 164.7 914.3 176.3 937.2 182.2L960 188L960 0L937.2 0C914.3 0 868.7 0 823 0C777.3 0 731.7 0 686 0C640.3 0 594.7 0 548.8 0C503 0 457 0 411.2 0C365.3 0 319.7 0 274 0C228.3 0 182.7 0 137 0C91.3 0 45.7 0 22.8 0L0 0Z" fill="#ff0000"></path><path d="M0 72L22.8 71.2C45.7 70.3 91.3 68.7 137 70.8C182.7 73 228.3 79 274 79.8C319.7 80.7 365.3 76.3 411.2 82.7C457 89 503 106 548.8 117.3C594.7 128.7 640.3 134.3 686 139.2C731.7 144 777.3 148 823 144.5C868.7 141 914.3 130 937.2 124.5L960 119L960 0L937.2 0C914.3 0 868.7 0 823 0C777.3 0 731.7 0 686 0C640.3 0 594.7 0 548.8 0C503 0 457 0 411.2 0C365.3 0 319.7 0 274 0C228.3 0 182.7 0 137 0C91.3 0 45.7 0 22.8 0L0 0Z" fill="#ba0004"></path><path d="M0 35L22.8 39.7C45.7 44.3 91.3 53.7 137 54.8C182.7 56 228.3 49 274 47C319.7 45 365.3 48 411.2 46.8C457 45.7 503 40.3 548.8 46.5C594.7 52.7 640.3 70.3 686 71C731.7 71.7 777.3 55.3 823 54.5C868.7 53.7 914.3 68.3 937.2 75.7L960 83L960 0L937.2 0C914.3 0 868.7 0 823 0C777.3 0 731.7 0 686 0C640.3 0 594.7 0 548.8 0C503 0 457 0 411.2 0C365.3 0 319.7 0 274 0C228.3 0 182.7 0 137 0C91.3 0 45.7 0 22.8 0L0 0Z" fill="#7a0000"></path></svg>