<svg id="visual" viewBox="0 0 960 540" width="960" height="540" xmlns="http://www.w3.org/2000/svg" xmlns:xlink="http://www.w3.org/1999/xlink" version="1.1"><rect x="0" y="0" width="960" height="540" fill="#ffffff"></rect><path d="M0 388L26.7 389.7C53.3 391.3 106.7 394.7 160 379.3C213.3 364 266.7 330 320 328.2C373.3 326.3 426.7 356.7 480 361.3C533.3 366 586.7 345 640 344.7C693.3 344.3 746.7 364.7 800 356.5C853.3 348.3 906.7 311.7 933.3 293.3L960 275L960 541L933.3 541C906.7 541 853.3 541 800 541C746.7 541 693.3 541 640 541C586.7 541 533.3 541 480 541C426.7 541 373.3 541 320 541C266.7 541 213.3 541 160 541C106.7 541 53.3 541 26.7 541L0 541Z" fill="#ff0000"></path><path d="M0 371L26.7 384.2C53.3 397.3 106.7 423.7 160 416.8C213.3 410 266.7 370 320 352.3C373.3 334.7 426.7 339.3 480 352.7C533.3 366 586.7 388 640 391.7C693.3 395.3 746.7 380.7 800 374.8C853.3 369 906.7 372 933.3 373.5L960 375L960 541L933.3 541C906.7 541 853.3 541 800 541C746.7 541 693.3 541 640 541C586.7 541 533.3 541 480 541C426.7 541 373.3 541 320 541C266.7 541 213.3 541 160 541C106.7 541 53.3 541 26.7 541L0 541Z" fill="#ba0004"></path><path d="M0 436L26.7 437.5C53.3 439 106.7 442 160 440C213.3 438 266.7 431 320 435.8C373.3 440.7 426.7 457.3 480 466.2C533.3 475 586.7 476 640 463.7C693.3 451.3 746.7 425.7 800 417.5C853.3 409.3 906.7 418.7 933.3 423.3L960 428L960 541L933.3 541C906.7 541 853.3 541 800 541C746.7 541 693.3 541 640 541C586.7 541 533.3 541 480 541C426.7 541 373.3 541 320 541C266.7 541 213.3 541 160 541C106.7 541 53.3 541 26.7 541L0 541Z" fill="#7a0000"></path></svg>